<svg id="Layer_1" data-name="Layer 1" xmlns="http://www.w3.org/2000/svg" xmlns:xlink="http://www.w3.org/1999/xlink" viewBox="0 0 996.1 573.81"><defs><style>.cls-1{fill:none;stroke-miterlimit:10;stroke:url(#radial-gradient);}</style><radialGradient id="radial-gradient" cx="494.75" cy="551.33" r="406.43" gradientUnits="userSpaceOnUse"><stop offset="0" stop-color="#fff"/><stop offset="0.42" stop-color="#fff"/><stop offset="0.49" stop-color="#fff"/><stop offset="0.51" stop-color="#fff" stop-opacity="0.97"/><stop offset="0.54" stop-color="#fff" stop-opacity="0.89"/><stop offset="0.57" stop-color="#fff" stop-opacity="0.76"/><stop offset="0.61" stop-color="#fff" stop-opacity="0.57"/><stop offset="0.66" stop-color="#fff" stop-opacity="0.33"/><stop offset="0.71" stop-color="#fff" stop-opacity="0.05"/><stop offset="0.72" stop-color="#fff" stop-opacity="0"/></radialGradient></defs><path class="cls-1" d="M660.26,710.89,550,774.56l-110.75-63.8L550.06,647Zm-220.71-.79L328.73,773.86l110.75,63.8L549.75,774Zm-2-126.88L326.75,647l110.75,63.8,110.27-63.67ZM550.06,519.1,439.24,582.86,550,646.66,660.26,583Zm110.51-62.76L549.75,520.1,660.5,583.9l110.28-63.67Zm-333.51,190L216.24,710.08,327,773.88l110.27-63.67ZM220,583.56,109.2,647.32l110.74,63.8,110.28-63.67Zm551.07-63.78L660.26,583.54,771,647.34l110.28-63.67Zm110.51-63.1L770.78,520.44l110.74,63.8L991.8,520.57ZM108.51,519.1-2.3,582.86l110.74,63.8L218.72,583Zm552.06,63.78L549.75,646.64l110.75,63.8,110.28-63.67ZM441,329.12,330.22,392.88,441,456.68,551.24,393ZM551.54,392.9q-55.39,31.89-110.81,63.76l110.74,63.8,110.28-63.67Zm-221-.68L219.71,456l110.74,63.8,110.28-63.67ZM441,456,330.22,519.76,441,583.56l110.28-63.67Zm-222,0L108.21,519.76,219,583.56l110.28-63.67Zm110.51,63.78L218.72,583.54l110.74,63.8,110.28-63.67ZM551.54,265q-55.39,31.89-110.81,63.76l110.74,63.8,110.28-63.67Zm110.51,63.78q-55.39,31.89-110.81,63.76L662,456.34l110.28-63.67Zm109,63.78L660.26,456.32,771,520.12l110.28-63.67Z" transform="translate(3.3 -264.43)"/></svg>