<svg id="Layer_1" data-name="Layer 1" xmlns="http://www.w3.org/2000/svg" viewBox="0 0 996.1 573.81"><defs><style>.cls-1{opacity:0.82;}.cls-2{fill:none;stroke:#f2f2f2;stroke-miterlimit:10;}</style></defs><g id="Layer_5" data-name="Layer 5"><g class="cls-1"><path class="cls-2" d="M550.06,647,439.24,710.76,550,774.56l110.27-63.67Z" transform="translate(3.3 -264.43)"/><path class="cls-2" d="M439.55,710.1,328.73,773.86l110.75,63.8L549.75,774Z" transform="translate(3.3 -264.43)"/><path class="cls-2" d="M437.57,583.22,326.75,647l110.75,63.8,110.27-63.67Z" transform="translate(3.3 -264.43)"/><path class="cls-2" d="M550.06,519.1,439.24,582.86,550,646.66,660.26,583Z" transform="translate(3.3 -264.43)"/><path class="cls-2" d="M660.57,456.34,549.75,520.1,660.5,583.9l110.28-63.67Z" transform="translate(3.3 -264.43)"/><path class="cls-2" d="M327.06,646.32,216.24,710.08,327,773.88l110.27-63.67Z" transform="translate(3.3 -264.43)"/><path class="cls-2" d="M220,583.56,109.2,647.32l110.74,63.8,110.28-63.67Z" transform="translate(3.3 -264.43)"/><path class="cls-2" d="M771.08,519.78,660.26,583.54,771,647.34l110.28-63.67Z" transform="translate(3.3 -264.43)"/><path class="cls-2" d="M881.59,456.68,770.78,520.44l110.74,63.8L991.8,520.57Z" transform="translate(3.3 -264.43)"/><path class="cls-2" d="M108.51,519.1-2.3,582.86l110.74,63.8L218.72,583Z" transform="translate(3.3 -264.43)"/><path class="cls-2" d="M660.57,582.88,549.75,646.64l110.75,63.8,110.28-63.67Z" transform="translate(3.3 -264.43)"/><path class="cls-2" d="M441,329.12,330.22,392.88,441,456.68,551.24,393Z" transform="translate(3.3 -264.43)"/><path class="cls-2" d="M551.54,392.9q-55.39,31.89-110.81,63.76l110.74,63.8,110.28-63.67Z" transform="translate(3.3 -264.43)"/><path class="cls-2" d="M330.52,392.22,219.71,456l110.74,63.8,110.28-63.67Z" transform="translate(3.3 -264.43)"/><path class="cls-2" d="M441,456,330.22,519.76,441,583.56l110.28-63.67Z" transform="translate(3.3 -264.43)"/><path class="cls-2" d="M219,456,108.21,519.76,219,583.56l110.28-63.67Z" transform="translate(3.3 -264.43)"/><path class="cls-2" d="M329.53,519.78,218.72,583.54l110.74,63.8,110.28-63.67Z" transform="translate(3.3 -264.43)"/><path class="cls-2" d="M551.54,265q-55.39,31.89-110.81,63.76l110.74,63.8,110.28-63.67Z" transform="translate(3.3 -264.43)"/><path class="cls-2" d="M662.05,328.78q-55.39,31.89-110.81,63.76L662,456.34l110.28-63.67Z" transform="translate(3.3 -264.43)"/><path class="cls-2" d="M771.08,392.56,660.26,456.32,771,520.12l110.28-63.67Z" transform="translate(3.3 -264.43)"/></g></g></svg>