<svg class="img-fluid" id="outputsvg" xmlns="http://www.w3.org/2000/svg" style="transform: matrix(1, 0, 0, 1, 0, 0); transform-origin: 50% 50%; cursor: move; transition: transform 200ms ease-in-out 0s;" width="346" height="338" viewBox="0 0 3460 3380">
  <g id="l26L3to3X4vzBrVvgeUztxl" fill="rgb(0,0,0)" style="transform: none;">
    <g style="transform: none;">
      <path id="psGOOKK6E" d="M450 3140 c0 -5 -11 -10 -25 -10 -29 0 -115 -79 -115 -105 0 -8 -4 -15 -10 -15 -5 0 -10 -13 -10 -30 0 -16 -4 -30 -10 -30 -7 0 -10 -223 -10 -650 l0 -650 45 0 45 0 705 705 705 705 0 45 0 45 -660 0 c-433 0 -660 -3 -660 -10z"></path>
      <path id="p1Ap2dAvKT" d="M1223 2194 l-953 -954 0 -445 c0 -290 3 -445 10 -445 6 0 10 -11 10 -25 0 -42 41 -75 95 -75 25 0 45 5 45 10 0 6 7 10 15 10 8 0 620 605 1360 1345 l1345 1345 0 70 c0 62 -3 74 -25 95 l-24 25 -463 -1 -463 -1 -952 -954z"></path>
      <path id="p1DLDC1Qug" d="M2950 2220 c0 -5 -9 -10 -20 -10 -11 0 -20 -4 -20 -10 0 -5 -7 -10 -16 -10 -20 0 -44 -24 -44 -44 0 -9 -4 -16 -10 -16 -7 0 -10 -313 -10 -920 0 -607 3 -920 10 -920 6 0 10 -7 10 -15 0 -20 45 -65 65 -65 8 0 15 -4 15 -10 0 -6 40 -10 100 -10 60 0 100 4 100 10 0 6 7 10 15 10 20 0 65 45 65 65 0 8 5 15 10 15 7 0 10 310 10 910 0 600 -3 910 -10 910 -5 0 -10 9 -10 20 0 11 -4 20 -10 20 -5 0 -10 9 -10 20 0 13 -7 20 -20 20 -11 0 -20 5 -20 10 0 6 -13 10 -30 10 -16 0 -30 5 -30 10 0 6 -30 10 -70 10 -40 0 -70 -4 -70 -10z"></path>
    </g>
  </g>
  <g id="l6kYP9ZKk9RY6nj9EVomRTN" fill="rgb(255,255,255)" style="transform: none;">
    <g style="transform: none;">
      <path id="p16Esty6L2" d="M0 1690 l0 -1690 1730 0 1730 0 0 1690 0 1690 -1730 0 -1730 0 0 -1690z m1740 1415 c0 -20 -1405 -1425 -1425 -1425 -13 0 -15 75 -15 620 0 407 3 620 10 620 6 0 10 14 10 30 0 17 5 30 10 30 6 0 10 7 10 15 0 26 86 105 115 105 14 0 25 5 25 10 0 7 217 10 630 10 554 0 630 -2 630 -15z m1355 -10 c18 -18 25 -35 25 -65 0 -40 -2 -42 -1345 -1385 -740 -740 -1352 -1345 -1360 -1345 -8 0 -15 -4 -15 -10 0 -18 -31 -10 -55 15 -14 13 -25 36 -25 50 0 14 -4 25 -10 25 -7 0 -10 145 -10 415 l0 415 953 954 952 954 433 1 433 1 24 -25z m-35 -905 c0 -5 14 -10 30 -10 17 0 30 -4 30 -10 0 -5 9 -10 20 -10 13 0 20 -7 20 -20 0 -11 5 -20 10 -20 6 0 10 -9 10 -20 0 -11 5 -20 10 -20 7 0 10 -300 10 -880 0 -580 -3 -880 -10 -880 -5 0 -10 -7 -10 -15 0 -20 -45 -65 -65 -65 -8 0 -15 -4 -15 -10 0 -6 -30 -10 -70 -10 -40 0 -70 4 -70 10 0 6 -7 10 -15 10 -20 0 -65 45 -65 65 0 8 -4 15 -10 15 -7 0 -10 303 -10 890 0 587 3 890 10 890 6 0 10 7 10 16 0 20 24 44 44 44 9 0 16 5 16 10 0 6 9 10 20 10 11 0 20 5 20 10 0 6 18 10 40 10 22 0 40 -4 40 -10z"></path>
    </g>
  </g>
</svg>