<svg fill="rgb(125, 101, 219)" class="img-fluid" id="outputsvg" xmlns="http://www.w3.org/2000/svg" style="transform: none; transform-origin: 50% 50% 0px; cursor: move; max-height: 359.74px; transition: none 0s ease 0s;" width="512" height="512" viewBox="0 0 5120 5120">
   <path id="pzCJRG6q2" d="M2020 3950 l0 -1170 -390 0 -390 0 0 -450 0 -450 389 0 389 0 5 -428 c5 -447 9 -502 54 -662 121 -435 435 -703 903 -770 135 -20 644 -10 853 16 l47 6 0 404 0 404 -295 0 c-176 0 -315 4 -347 11 -111 23 -196 82 -237 165 -42 82 -50 174 -51 527 l0 327 451 0 452 0 -6 38 c-3 20 -29 223 -58 450 l-53 412 -393 0 -393 0 0 1170 0 1170 -465 0 -465 0 0 -1170z"></path>
</svg>

