<svg fill="rgb(74, 167, 234)" class="img-fluid" id="outputsvg" xmlns="http://www.w3.org/2000/svg" viewBox="0 0 5120 5120">
    <path id="p11t8kUbro" d="M1675 4976 c-586 -214 -1065 -624 -1368 -1171 -147 -266 -252 -601 -287 -910 -14 -128 -14 -422 0 -545 54 -475 245 -927 549 -1297 726 -884 1938 -1181 3000 -737 752 315 1318 994 1490 1785 50 232 67 558 41 794 -47 422 -216 850 -472 1197 -231 313 -570 596 -923 768 -268 130 -399 166 -460 126 -53 -35 -55 -49 -55 -499 0 -376 -2 -421 -19 -489 -23 -89 -68 -183 -112 -233 l-31 -35 29 0 c39 0 243 -37 313 -56 464 -131 712 -402 796 -869 13 -71 18 -153 18 -285 1 -160 -2 -197 -22 -275 -28 -112 -104 -268 -175 -361 l-54 -70 20 -75 c40 -150 25 -386 -35 -546 l-19 -53 -58 0 c-134 0 -360 84 -560 208 l-83 52 -117 -24 c-211 -44 -286 -51 -526 -51 -240 1 -360 13 -548 56 l-88 21 -83 -51 c-206 -126 -434 -211 -567 -211 l-58 0 -19 53 c-39 104 -56 207 -56 337 0 117 4 144 39 265 4 15 -9 40 -50 90 -113 142 -187 341 -201 542 -7 107 8 315 32 428 102 490 422 772 979 860 61 10 116 19 123 21 10 3 3 19 -22 53 -46 62 -81 142 -97 220 l-13 61 -81 26 c-44 14 -117 28 -162 31 -208 15 -355 -65 -495 -270 -75 -109 -142 -170 -236 -215 -91 -43 -198 -55 -250 -28 -57 29 -36 70 72 144 125 87 182 161 277 358 54 114 70 137 133 199 82 81 165 126 288 157 71 18 101 20 232 15 83 -4 166 -9 184 -13 l32 -6 0 222 c0 249 -6 276 -65 304 -47 23 -78 19 -180 -18z"></path>
</svg>

