<svg  fill="rgb(70, 92, 201)" class="img-fluid" id="outputsvg" xmlns="http://www.w3.org/2000/svg" style="transform: none; transform-origin: 50% 50% 0px; cursor: move; max-height: 359.74px; transition: none 0s ease 0s;" width="512" height="512" viewBox="0 0 5120 5120">
    <g id="l1oikGXYBF2cR0KdpRwe4if" style="transform: none;">
        <path id="p4CAYldyL" d="M1695 5109 c-537 -17 -846 -102 -1122 -307 -256 -192 -426 -468 -503 -817 -50 -230 -53 -290 -59 -1165 -9 -1155 1 -1429 60 -1694 45 -205 131 -400 239 -545 69 -91 211 -230 300 -293 197 -139 460 -227 770 -258 270 -27 2096 -28 2355 0 821 86 1269 534 1355 1355 31 287 27 2124 -4 2385 -47 389 -179 690 -400 914 -234 236 -536 363 -966 406 -168 17 -1655 31 -2025 19z m1845 -459 c379 -24 580 -84 757 -225 180 -143 284 -345 328 -635 28 -189 35 -407 35 -1215 0 -1059 -11 -1254 -81 -1468 -51 -156 -101 -240 -209 -348 -84 -84 -108 -101 -200 -147 -156 -76 -303 -114 -565 -142 -140 -16 -1622 -23 -1950 -10 -257 10 -368 22 -495 55 -447 114 -649 405 -699 1006 -15 182 -17 1962 -2 2109 35 343 111 543 270 712 189 202 415 281 875 308 204 11 1750 11 1936 0z"></path>
        <path id="p9RkiAIwl" d="M2416 3860 c-311 -39 -580 -173 -794 -394 -178 -184 -290 -395 -343 -649 -31 -145 -31 -371 -1 -514 38 -174 103 -329 200 -478 63 -96 258 -290 357 -354 319 -208 694 -271 1057 -177 643 168 1060 798 962 1454 -40 273 -159 514 -349 711 -196 203 -419 327 -687 381 -116 24 -300 33 -402 20z m354 -471 c294 -69 540 -312 621 -614 31 -113 31 -316 0 -430 -79 -300 -317 -537 -616 -616 -96 -26 -296 -31 -390 -10 -323 71 -583 323 -654 634 -28 120 -34 201 -21 302 41 335 264 611 576 714 162 54 312 60 484 20z"></path>
        <path id="p130BhGNlo" d="M3872 1489 c-283 -55 -334 -438 -74 -566 76 -37 183 -39 252 -4 61 31 117 86 148 146 38 74 38 178 -1 257 -60 122 -197 192 -325 167z"></path>
    </g>
</svg>

