<svg fill="rgb(71, 122, 214)" class="img-fluid" id="outputsvg" xmlns="http://www.w3.org/2000/svg" style="transform: none; transform-origin: 50% 50% 0px; cursor: move; max-height: 359.74px;" width="512" height="512" viewBox="0 0 5120 5120">
    <g id="ljkg4q2m0X03lvBfBr50ai" style="transform: none;">
            <path id="peA2fFGnY" d="M580 3240 l0 -1360 420 0 420 0 0 1360 0 1360 -420 0 -420 0 0 -1360z"></path>
            <path id="pKxRgl9QH" d="M1970 3240 l0 -1360 400 0 400 0 0 185 c0 102 4 185 9 185 4 0 25 -26 46 -57 21 -32 70 -89 110 -128 183 -178 440 -266 730 -251 298 16 507 97 655 253 128 134 204 305 251 563 23 123 23 137 27 1048 l3 922 -420 0 -420 0 -3 -822 c-4 -817 -4 -824 -26 -903 -44 -158 -106 -241 -215 -291 -53 -24 -77 -29 -173 -32 -61 -2 -135 1 -165 7 -176 37 -283 148 -341 356 -22 79 -23 88 -26 883 l-3 802 -419 0 -420 0 0 -1360z"></path>
            <path id="p1GtmwLL72" d="M945 1488 c-239 -28 -426 -240 -425 -482 1 -144 41 -238 144 -342 104 -103 198 -143 342 -144 302 -1 535 285 473 582 -51 246 -286 415 -534 386z"></path>
    </g>
</svg>

