<?xml version="1.0" encoding="UTF-8"?>
<svg fill="#040508" version="1.1" viewBox="0 0 700 700" xmlns="http://www.w3.org/2000/svg" xmlns:xlink="http://www.w3.org/1999/xlink">
  <path d="m361.14 2.7852c75.223 41.793 147.66 86.367 222.89 128.16 8.3594 5.5703 11.145 11.145 11.145 19.504v259.11c0 8.3594-5.5703 16.715-11.145 19.504-75.223 41.793-147.66 86.367-222.89 128.16-8.3594 2.7852-16.715 2.7852-22.289 0-75.223-44.578-147.66-86.367-222.89-128.16-8.3594-5.5703-11.145-13.93-11.145-19.504v-259.11c0-8.3594 5.5703-16.715 13.93-19.504 72.438-41.793 147.66-86.367 220.1-128.16 8.3594-2.7852 16.715-2.7852 22.289 0z"/>
</svg>
