<svg fill="#20c6a5" class="img-fluid" id="outputsvg" xmlns="http://www.w3.org/2000/svg" style="transform: matrix(1, 0, 0, 1, 0, -1); transform-origin: 50% 50% 0px; cursor: move; max-height: 347.98px; transition: none 0s ease 0s;" width="1199" height="747" viewBox="0 0 11990 7470">
        <path id="pyHVygnx4" d="M1610 7120 c-12 -7 -12 -14 -4 -27 14 -23 309 -531 457 -787 64 -110 114 -203 111 -208 -3 -4 -266 -8 -585 -8 -508 0 -579 -2 -579 -15 0 -13 72 -15 590 -15 l590 0 0 -575 0 -575 -64 48 c-35 26 -90 67 -122 92 -32 25 -128 99 -214 164 -85 65 -160 123 -166 128 -8 5 -30 -23 -68 -86 -31 -52 -56 -98 -56 -103 0 -4 148 -70 327 -145 180 -75 329 -140 330 -145 2 -5 -72 -52 -164 -105 -93 -53 -283 -163 -423 -244 -140 -81 -291 -168 -335 -194 l-80 -46 -3 -615 -2 -614 77 -46 c43 -25 267 -155 498 -289 231 -133 430 -249 442 -257 l23 -13 0 -599 0 -598 -187 -109 c-104 -60 -202 -117 -220 -126 -94 -51 -253 -150 -253 -158 0 -26 33 -12 187 78 92 54 246 143 340 198 l173 99 0 606 0 605 43 24 c23 13 182 105 352 203 171 99 326 189 345 200 19 10 97 55 173 99 l137 80 0 603 0 604 58 34 c31 19 203 119 382 222 179 103 382 221 452 261 70 41 133 74 140 74 6 0 75 -37 152 -82 78 -44 157 -90 176 -101 19 -11 99 -57 177 -102 77 -46 165 -97 195 -113 29 -17 114 -66 188 -109 l135 -79 3 -382 c2 -374 3 -382 22 -382 20 0 20 7 20 383 l0 382 208 119 c114 66 286 165 382 221 96 56 237 137 312 181 l138 79 0 602 0 602 23 16 c12 9 83 51 157 94 443 255 808 466 831 479 28 16 12 24 893 -490 92 -54 172 -98 177 -98 5 0 54 27 110 60 55 33 102 60 104 60 1 0 65 37 141 81 77 45 264 153 416 241 l278 160 152 -88 c84 -48 282 -163 441 -255 158 -93 311 -182 340 -198 28 -16 66 -37 83 -47 l30 -17 140 80 c76 45 220 128 319 185 99 57 272 158 385 222 113 65 206 119 207 120 1 1 -2 8 -7 16 -8 13 -13 13 -37 -1 -26 -15 -270 -155 -786 -453 -120 -69 -220 -126 -223 -126 -2 0 -41 22 -86 49 -72 42 -364 210 -453 261 -16 9 -137 79 -267 154 l-237 137 -348 -199 c-191 -110 -388 -223 -438 -252 -49 -28 -129 -74 -178 -102 l-87 -49 -103 59 c-56 32 -194 112 -307 177 -377 218 -633 365 -635 365 -2 0 -56 -31 -121 -69 -799 -461 -926 -531 -947 -519 -24 12 -559 321 -839 485 -97 57 -181 103 -186 103 -10 0 -36 -15 -537 -305 -160 -92 -340 -196 -402 -231 l-112 -65 -173 100 c-95 55 -252 145 -348 200 -124 71 -176 97 -182 88 -11 -17 -5 -21 222 -151 328 -189 414 -238 438 -253 l22 -13 0 -598 0 -598 -202 -116 c-112 -64 -286 -164 -388 -223 -346 -200 -426 -245 -438 -245 -7 0 -70 33 -140 74 -70 40 -273 158 -452 261 -179 103 -351 203 -382 222 l-58 34 0 593 0 593 158 90 c430 248 528 305 534 311 4 4 4 13 -1 20 -5 9 -59 -17 -202 -99 -107 -62 -211 -123 -231 -135 -21 -13 -40 -24 -42 -24 -2 0 -50 -27 -106 -60 -56 -33 -107 -60 -113 -60 -7 0 -49 64 -94 143 -93 163 -504 871 -507 874 -1 1 -8 -2 -16 -7z m3849 -515 c51 -30 94 -55 96 -55 2 0 81 -45 176 -101 170 -99 303 -176 542 -313 l117 -68 -2 -596 -3 -596 -140 -81 c-77 -45 -225 -131 -330 -191 -104 -61 -269 -156 -366 -212 -96 -56 -181 -102 -188 -102 -11 0 -546 303 -846 480 -44 26 -104 60 -133 76 l-52 29 2 598 3 598 205 119 c676 390 816 470 821 470 3 0 47 -25 98 -55z m-3002 -1897 c125 -72 307 -177 403 -233 96 -56 221 -128 278 -161 l102 -59 -2 -599 -3 -600 -155 -89 c-85 -49 -238 -138 -340 -197 -102 -59 -203 -118 -225 -130 -22 -12 -93 -53 -157 -91 -65 -38 -124 -72 -131 -75 -8 -3 -101 45 -208 107 -106 61 -295 170 -419 242 -124 71 -269 154 -323 185 l-97 55 2 595 3 595 310 178 c171 98 366 211 435 250 69 40 157 91 195 115 39 23 78 43 87 43 9 1 120 -58 245 -131z"></path>
        <path id="p10gx6yQ1b" d="M5364 6429 c-3 -6 -2 -15 2 -19 7 -7 226 -135 364 -213 19 -10 87 -50 150 -86 233 -136 282 -162 296 -157 8 3 14 9 14 13 0 4 -60 42 -133 84 -72 42 -254 146 -404 232 -150 87 -274 157 -277 157 -3 0 -8 -5 -12 -11z"></path>
        <path id="p8GGscZFm" d="M4510 5470 c0 -463 0 -470 20 -470 20 0 20 7 20 470 0 463 0 470 -20 470 -20 0 -20 -7 -20 -470z"></path>
        <path id="pf03GMdsz" d="M6125 4977 c-22 -13 -164 -95 -315 -182 -240 -138 -438 -253 -448 -261 -2 -1 0 -9 5 -18 7 -13 24 -6 108 43 55 32 238 138 407 235 222 128 305 181 301 192 -7 18 -11 18 -58 -9z"></path>
        <path id="pm9O8ZuPY" d="M3005 3176 c-20 -13 -249 -146 -315 -183 -117 -66 -448 -258 -463 -268 -15 -10 -15 -14 -3 -24 11 -9 31 -2 98 37 98 58 527 305 645 372 71 40 81 49 70 63 -10 13 -15 13 -32 3z"></path>
<!--        <path id="p9S63k0TT" d="M3205 6971 c-77 -20 -151 -86 -176 -157 -21 -59 -16 -180 8 -234 41 -93 117 -140 223 -140 74 0 129 21 174 66 85 85 97 255 27 367 -47 72 -171 120 -256 98z m110 -52 c51 -14 110 -73 124 -124 33 -118 -7 -248 -89 -290 -37 -19 -142 -20 -178 -1 -66 35 -102 108 -102 210 1 101 45 172 127 201 47 17 67 18 118 4z"></path>-->
<!--        <path id="p5J4Is0dE" d="M960 5495 l0 -265 30 0 30 0 0 110 0 110 145 0 145 0 0 -110 0 -110 30 0 30 0 0 265 0 265 -30 0 -30 0 0 -130 0 -130 -145 0 -145 0 0 130 0 130 -30 0 -30 0 0 -265z"></path>-->
        <path id="pzXzND1ko" d="M3451 4151 c-15 -26 8 -46 25 -23 17 22 17 29 -1 36 -8 3 -19 -2 -24 -13z"></path>
        <path id="pXaYWH2AU" d="M3662 4030 c-27 -49 -29 -60 -18 -70 12 -9 17 -7 27 12 6 13 22 42 36 64 22 39 22 42 5 46 -14 4 -26 -9 -50 -52z"></path>
        <path id="pV7UbSqqV" d="M3916 3978 c-85 -135 -97 -161 -83 -175 12 -12 19 -5 54 54 44 74 73 129 73 138 0 14 -31 2 -44 -17z"></path>
<!--        <path id="pE1VgwMqE" d="M4100 3680 l0 -260 30 0 30 0 0 110 0 111 148 -3 147 -3 3 -107 c3 -107 3 -108 27 -108 l25 0 0 260 0 260 -25 0 -25 0 0 -125 0 -125 -150 0 -150 0 0 125 0 125 -30 0 -30 0 0 -260z"></path>-->
<!--        <path id="p0HQslVg9" d="M5242 3319 c-86 -43 -132 -131 -132 -255 0 -59 5 -81 28 -125 93 -178 341 -180 431 -4 23 43 26 62 26 145 0 86 -3 100 -28 142 -48 83 -115 118 -221 118 -42 0 -74 -7 -104 -21z m215 -54 c58 -35 87 -98 87 -190 0 -133 -74 -219 -189 -219 -117 0 -189 83 -190 219 -1 179 146 275 292 190z"></path>-->
<!--        <path id="pSJ9NnNTq" d="M5710 3075 l0 -265 30 0 30 0 0 110 0 110 145 0 145 0 0 -110 0 -110 30 0 30 0 0 265 0 265 -30 0 -30 0 0 -130 0 -130 -145 0 -145 0 0 130 0 130 -30 0 -30 0 0 -265z"></path>-->
<!--        <path id="pTAmnGCse" d="M1090 915 c-108 -34 -170 -131 -170 -263 2 -162 94 -262 245 -262 153 0 245 103 245 274 0 113 -53 203 -141 240 -55 23 -128 28 -179 11z m181 -71 c55 -38 83 -102 83 -189 0 -137 -69 -215 -190 -215 -49 0 -69 5 -105 29 -51 32 -73 75 -85 159 -13 103 48 216 130 242 50 15 125 4 167 -26z"></path>-->
<!--        <path id="pPVn3ERx4" d="M400 655 l0 -265 30 0 30 0 0 110 0 110 145 0 145 0 0 -110 0 -110 30 0 30 0 0 265 0 265 -30 0 -30 0 0 -130 0 -130 -145 0 -145 0 0 130 0 130 -30 0 -30 0 0 -265z"></path>-->
</svg>
