<?xml version="1.0" encoding="UTF-8"?>
<svg version="1.1" viewBox="0 0 700 700" xmlns="http://www.w3.org/2000/svg" xmlns:xlink="http://www.w3.org/1999/xlink">
  <path d="m415.56 277.83v-174.41c11.305 0 20.461-9.1602 20.461-20.453 0-11.305-9.1602-20.469-20.461-20.469l-106.38 0.003906c-11.305 0-20.461 9.1602-20.461 20.469 0 11.297 9.1602 20.453 20.461 20.453v174.41c-10.875 5.8906-20.578 13.609-28.914 22.617l-20.164-20.195-8.7148-33.734-0.10156 0.10156c-0.50391-1.2812-1.2539-2.4766-2.2695-3.5039-4.0078-4-10.477-4-14.48 0l-37.609 37.613c-3.9883 4-3.9883 10.477 0 14.465 1.0352 1.043 2.2305 1.793 3.5117 2.2891 0.6875 0.26953 1.4062 0.45312 2.1328 0.55469l31.496 8.2383 25.613 25.641c-5.8789 13.602-9.1719 28.566-9.1719 44.32 0 61.785 50.094 111.87 111.86 111.87 61.77 0 111.86-50.082 111.86-111.87 0.007813-42.527-23.727-79.492-58.664-98.41z"/>
</svg>
