<svg fill="white" viewBox="0 0 700 700" xmlns="http://www.w3.org/2000/svg">
  <path d="m292.32 232.4c0 21.652-17.551 39.203-39.199 39.203-21.652 0-39.199-17.551-39.199-39.203 0-21.648 17.547-39.199 39.199-39.199 21.648 0 39.199 17.551 39.199 39.199"/>
  <path d="m282.8 267.68c-7.8398 6.7188-18.48 10.641-29.68 10.641-11.199 0-21.84-3.9219-29.68-10.641-21.281 11.199-36.398 33.602-37.52 59.922v22.398c0 9.5195 30.238 16.801 67.199 16.801 36.961 0 67.199-7.2812 67.199-16.801v-22.398c-1.1211-26.32-16.242-48.723-37.52-59.922z"/>
  <path d="m544.32 130.48h-388.64c-16.238 0-29.68 13.441-29.68 29.68v239.12c0 16.238 13.441 29.68 29.68 29.68h388.08c16.238 0 29.68-13.441 29.68-29.68l0.003906-238.56c0.55859-16.797-12.883-30.238-29.121-30.238zm-198.24 241.92c0 11.199-8.9609 19.602-19.602 19.602h-147.28c-11.199 0-19.602-8.9609-19.602-19.602l0.003906-184.8c0-11.199 8.9609-19.602 19.602-19.602h147.28c11.199 0 19.602 8.9609 19.602 19.602zm175.84 19.602h-134.4c-3.9219 0-7.2812-3.3594-7.2812-7.2812s3.3594-7.2812 7.2812-7.2812h134.4c3.9219 0 7.2812 3.3594 7.2812 7.2812-0.003906 3.9219-3.3633 7.2812-7.2812 7.2812zm0-52.078h-134.4c-3.9219 0-7.2812-3.3594-7.2812-7.2812s3.3594-7.2812 7.2812-7.2812h134.4c3.9219 0 7.2812 3.3594 7.2812 7.2812-0.003906 3.918-3.3633 7.2812-7.2812 7.2812zm0-52.641h-134.4c-3.9219 0-7.2812-3.3594-7.2812-7.2812s3.3594-7.2812 7.2812-7.2812h134.4c3.9219 0 7.2812 3.3594 7.2812 7.2812-0.003906 3.9219-3.3633 7.2812-7.2812 7.2812zm7.2773-104.16c0 8.3984-6.7188 15.121-15.121 15.121l-119.28-0.003907c-8.3984 0-15.121-6.7188-15.121-15.121 0-8.3984 6.7188-15.121 15.121-15.121h119.28c8.3984 0.003906 15.117 6.7227 15.117 15.125z"/>
</svg>
