<?xml version="1.0" encoding="UTF-8"?>
<svg width="700pt" fill="#8d5935" height="700pt" version="1.1" viewBox="0 0 700 700" xmlns="http://www.w3.org/2000/svg" xmlns:xlink="http://www.w3.org/1999/xlink">
  <path d="m190.51 315.84c21.281 16.574 44.465 25.09 67.426 25.09 4.3672 0 8.7344-0.33594 13.105-1.0078 14.223-52.641-12.207-94.977-40.207-139.66-27.215-43.457-55.105-88.367-46.816-144.37-21.621 11.422-38.645 31.469-49.059 58.348-12.656 32.594-13.887 71.457-3.4727 109.43 10.414 37.855 31.359 70.559 59.023 92.176z"/>
  <path d="m253.79 185.81c27.215 43.457 55.105 88.367 46.816 144.37 21.617-11.426 38.754-31.586 49.055-58.352 12.656-32.594 13.887-71.457 3.4727-109.43-10.414-37.969-31.359-70.672-59.023-92.176-25.312-19.711-53.535-28.113-80.641-24.191-14.113 52.754 12.32 95.09 40.32 139.78z"/>
  <path d="m330.62 425.82c5.1523 32.594 20.945 58.465 44.465 73.922 44.129-30.016 53.762-78.961 63.84-130.82 9.7422-50.176 19.824-101.92 61.938-138.1-53.09-12.543-116.82 22.734-150.64 87.359-18.148 34.832-25.09 73.023-19.602 107.63z"/>
  <path d="m465.59 374.08c-9.7422 50.289-19.824 102.03-62.047 138.1 7.2812 1.793 14.785 2.6875 22.398 2.6875 16.574 0 33.938-4.1445 51.07-12.434 31.586-15.23 58.91-42.785 77.168-77.617 36.512-69.777 24.977-148.85-24.754-181.55-44.125 30.02-53.758 78.961-63.836 130.82z"/>
</svg>
